# xmcd
#
# Track frame offsets:
#	150
#	15395
#	29323
#	46178
#	64129
#	91002
#	105636
#	124547
#
# Disc length: 1814 seconds
#
# Revision: 2
# Processed by: cddbd v1.5.1PL0 Copyright (c) Steve Scherf et al.
# Submitted via: EZCDDA 4.3.2
#
DISCID=54071408
DTITLE=Guns And Roses - Lies
DYEAR=1900
DGENRE=
TTITLE0=Reckless Life
TTITLE1=Nice Boys
TTITLE2=Move To The City
TTITLE3=Mama Kin
TTITLE4=Patience
TTITLE5=Used To Love Her
TTITLE6=You´re Crazy
TTITLE7=One In A Million
EXTD=
EXTT0=
EXTT1=
EXTT2=
EXTT3=
EXTT4=
EXTT5=
EXTT6=
EXTT7=
PLAYORDER=
